<svg width="319" height="89" viewBox="0 0 319 89" fill="none" xmlns="http://www.w3.org/2000/svg">
<path d="M37.0556 89C16.5903 89 0 72.4097 0 51.9445V37.8574C0 18.4303 15.7488 2.68151 35.1759 2.68151H50.7767C61.5878 2.68151 70.3519 11.4456 70.3519 22.2566V40.5831C70.3519 41.2727 70.9109 41.8317 71.6004 41.8317C72.1377 41.8317 72.614 41.4868 72.7903 40.9793C77.1233 28.5098 84.3661 18.6041 94.5185 11.2624C104.901 3.75413 117.253 0 131.574 0C146.074 0 158.56 3.84351 169.032 11.5305C179.195 18.9034 185.438 28.6332 187.761 40.7198C187.885 41.3606 188.44 41.8317 189.093 41.8317C189.695 41.8317 190.221 41.4293 190.392 40.8523C193.991 28.7043 201.327 18.9304 212.398 11.5305C223.765 3.84351 237.102 0 252.407 0C272.188 0 288.21 6.34627 300.472 19.0388C312.824 31.7313 319 48.6249 319 69.7196C319 80.3679 310.368 89 299.72 89H245.399C245.117 89 244.889 88.7718 244.889 88.4902C244.889 79.4624 242.606 72.4011 238.042 67.3062C233.477 62.1219 227.346 59.5298 219.648 59.5298C212.04 59.5298 205.998 62.1219 201.523 67.3062C197.137 72.4011 194.944 79.4624 194.944 88.4902C194.944 88.7718 194.716 89 194.435 89H124.565C124.284 89 124.056 88.7718 124.056 88.4902C124.056 79.4624 121.773 72.4011 117.208 67.3062C112.644 62.1219 106.512 59.5298 98.8148 59.5298C93.713 59.5298 89.3272 60.6918 85.6574 63.0158C81.9876 65.3398 79.1235 68.6917 77.0648 73.0715C75.0957 77.3619 74.1111 82.5015 74.1111 88.4902C74.1111 88.7718 73.8829 89 73.6014 89H37.0556Z" fill="url(#paint0_linear_169_807)"/>
<defs>
<linearGradient id="paint0_linear_169_807" x1="159.5" y1="89" x2="159.5" y2="0" gradientUnits="userSpaceOnUse">
<stop stop-color="#8FF3FA" stop-opacity="0.95"/>
<stop offset="1" stop-color="#20D0DD"/>
</linearGradient>
</defs>
</svg>
