<svg width="204" height="37" viewBox="0 0 204 37" fill="none" xmlns="http://www.w3.org/2000/svg">
<path d="M6.35938 10.6406L6.54688 13.7109C7.03125 12.6172 7.69531 11.7578 8.53906 11.1328C9.39844 10.4922 10.4375 10.1719 11.6562 10.1719C12.25 10.1719 12.7812 10.2422 13.25 10.3828C13.7188 10.5234 14.125 10.7422 14.4688 11.0391C14.7344 11.2578 14.9609 11.5234 15.1484 11.8359C15.3516 12.1328 15.5234 12.4766 15.6641 12.8672C15.8828 12.4922 16.125 12.1562 16.3906 11.8594C16.6719 11.5469 16.9766 11.2812 17.3047 11.0625C17.7109 10.7812 18.1719 10.5625 18.6875 10.4062C19.2031 10.25 19.7656 10.1719 20.375 10.1719C21.1406 10.1719 21.8516 10.3125 22.5078 10.5938C23.1797 10.875 23.7656 11.3203 24.2656 11.9297C24.75 12.5547 25.125 13.3594 25.3906 14.3438C25.6719 15.3125 25.8125 16.5 25.8125 17.9062V36H19.8828V17.8828C19.8828 17.3984 19.8281 17 19.7188 16.6875C19.625 16.375 19.4922 16.125 19.3203 15.9375C19.1484 15.7656 18.9453 15.6484 18.7109 15.5859C18.4922 15.5078 18.2656 15.4688 18.0312 15.4688C17.7812 15.4688 17.5547 15.5 17.3516 15.5625C17.1641 15.625 16.9844 15.7109 16.8125 15.8203C16.6719 15.9297 16.5469 16.0547 16.4375 16.1953C16.3281 16.3203 16.2344 16.4688 16.1562 16.6406C16.1562 16.6719 16.1562 16.7422 16.1562 16.8516C16.1562 16.9609 16.1562 17.1094 16.1562 17.2969V36H10.4141V17.8594C10.4141 17.375 10.3672 16.9766 10.2734 16.6641C10.1797 16.3516 10.0547 16.1094 9.89844 15.9375C9.72656 15.7656 9.53125 15.6484 9.3125 15.5859C9.09375 15.5078 8.85938 15.4688 8.60938 15.4688C8.32812 15.4688 8.07812 15.5156 7.85938 15.6094C7.64062 15.7031 7.44531 15.8359 7.27344 16.0078C7.14844 16.1328 7.03906 16.2812 6.94531 16.4531C6.85156 16.625 6.76562 16.8125 6.6875 17.0156V36H0.757812V10.6406H6.35938ZM40.0775 36.4688C38.1244 36.4688 36.3509 36.1484 34.7572 35.5078C33.1634 34.8672 31.7962 33.9922 30.6556 32.8828C29.515 31.7891 28.6322 30.5 28.0072 29.0156C27.3978 27.5156 27.0931 25.9141 27.0931 24.2109V23.2734C27.0931 21.3359 27.3978 19.5703 28.0072 17.9766C28.6166 16.3672 29.4681 14.9844 30.5619 13.8281C31.6556 12.6719 32.9525 11.7734 34.4525 11.1328C35.9525 10.4922 37.5853 10.1719 39.3509 10.1719C41.1791 10.1719 42.8041 10.4766 44.2259 11.0859C45.6634 11.6797 46.8822 12.5234 47.8822 13.6172C48.8666 14.7109 49.6166 16.0312 50.1322 17.5781C50.6478 19.1094 50.9056 20.8047 50.9056 22.6641V25.4297H33.7025V25.5C33.9212 26.5156 34.2025 27.3359 34.5462 27.9609C34.89 28.5703 35.3509 29.125 35.9291 29.625C36.5228 30.1406 37.2025 30.5391 37.9681 30.8203C38.7337 31.1016 39.5697 31.2422 40.4759 31.2422C41.7572 31.2422 42.9994 31 44.2025 30.5156C45.4056 30.0312 46.3822 29.3047 47.1322 28.3359L50.39 31.8516C49.5619 33.0234 48.2494 34.0859 46.4525 35.0391C44.6556 35.9922 42.5306 36.4688 40.0775 36.4688ZM39.3041 15.4453C38.5697 15.4453 37.8978 15.5781 37.2884 15.8438C36.6791 16.0938 36.1478 16.4609 35.6947 16.9453C35.2259 17.4297 34.8353 18.0078 34.5228 18.6797C34.2103 19.3516 33.9759 20.1016 33.8197 20.9297H44.5072V20.4141C44.5072 19.7266 44.3822 19.0781 44.1322 18.4688C43.8822 17.8594 43.5384 17.3281 43.1009 16.875C42.6634 16.4375 42.1244 16.0938 41.4837 15.8438C40.8587 15.5781 40.1322 15.4453 39.3041 15.4453ZM65.1941 4.42969V10.6406H74.6628V15.4453H65.1941V26.3438C65.1941 27.2656 65.2956 28.0391 65.4987 28.6641C65.7175 29.2734 66.0222 29.7578 66.4128 30.1172C66.8034 30.4922 67.2722 30.7578 67.8191 30.9141C68.3816 31.0703 69.0066 31.1484 69.6941 31.1484C70.1941 31.1484 70.7019 31.125 71.2175 31.0781C71.7487 31.0312 72.2566 30.9688 72.7409 30.8906C73.2097 30.8281 73.6472 30.7578 74.0534 30.6797C74.4753 30.6016 74.8347 30.5234 75.1316 30.4453L75.7644 34.9219C75.3112 35.1875 74.78 35.4219 74.1706 35.625C73.5612 35.8125 72.9128 35.9688 72.2253 36.0938C71.5378 36.2188 70.8191 36.3125 70.0691 36.375C69.3347 36.4531 68.6081 36.4922 67.8894 36.4922C66.4987 36.4922 65.2331 36.3125 64.0925 35.9531C62.9675 35.5781 62.0066 35 61.2097 34.2188C60.3972 33.4531 59.7722 32.4766 59.3347 31.2891C58.8972 30.0859 58.6784 28.6484 58.6784 26.9766V15.4453H52.8894V10.6406H58.6784V4.42969H65.1941ZM94.5528 36C94.3966 35.6875 94.2637 35.3281 94.1544 34.9219C94.045 34.5156 93.9512 34.0859 93.8731 33.6328C93.5137 34.0234 93.0997 34.3906 92.6309 34.7344C92.1622 35.0781 91.6466 35.375 91.0841 35.625C90.5059 35.8906 89.8731 36.0938 89.1856 36.2344C88.4981 36.3906 87.7559 36.4688 86.9591 36.4688C85.6622 36.4688 84.4669 36.2812 83.3731 35.9062C82.295 35.5312 81.3653 35.0078 80.5841 34.3359C79.8028 33.6641 79.1934 32.8672 78.7559 31.9453C78.3184 31.0078 78.0997 29.9922 78.0997 28.8984C78.0997 27.4922 78.3731 26.25 78.92 25.1719C79.4669 24.0781 80.2872 23.1797 81.3809 22.4766C82.3653 21.8359 83.5762 21.3516 85.0137 21.0234C86.4669 20.6797 88.1309 20.5078 90.0059 20.5078H93.6387V19.0078C93.6387 18.4141 93.545 17.8828 93.3575 17.4141C93.17 16.9297 92.8887 16.5156 92.5137 16.1719C92.1231 15.8125 91.6309 15.5391 91.0372 15.3516C90.4591 15.1484 89.7794 15.0469 88.9981 15.0469C88.3106 15.0469 87.7169 15.1328 87.2169 15.3047C86.7169 15.4609 86.3106 15.6875 85.9981 15.9844C85.7169 16.25 85.5059 16.5703 85.3653 16.9453C85.2403 17.3203 85.1778 17.7344 85.1778 18.1875H78.6622C78.6622 17.1094 78.8966 16.0859 79.3653 15.1172C79.8497 14.1484 80.5528 13.2969 81.4747 12.5625C82.3809 11.8281 83.4903 11.25 84.8028 10.8281C86.1309 10.3906 87.6466 10.1719 89.3497 10.1719C90.8809 10.1719 92.3028 10.3594 93.6153 10.7344C94.9434 11.1094 96.0919 11.6641 97.0606 12.3984C98.0294 13.1328 98.7872 14.0625 99.3341 15.1875C99.8809 16.2969 100.154 17.5859 100.154 19.0547V29.9297C100.154 31.2891 100.24 32.4141 100.412 33.3047C100.584 34.1953 100.834 34.9609 101.162 35.6016V36H94.5528ZM88.3419 31.4297C88.9981 31.4297 89.6075 31.3516 90.17 31.1953C90.7325 31.0391 91.2403 30.8359 91.6934 30.5859C92.1466 30.3359 92.5372 30.0547 92.8653 29.7422C93.1934 29.4141 93.4512 29.0859 93.6387 28.7578V24.3984H90.3106C89.295 24.3984 88.4278 24.5 87.7091 24.7031C86.9903 24.8906 86.4044 25.1562 85.9512 25.5C85.4981 25.8594 85.1622 26.2891 84.9434 26.7891C84.7247 27.2734 84.6153 27.8047 84.6153 28.3828C84.6153 28.8359 84.6934 29.2578 84.8497 29.6484C85.0216 30.0234 85.2637 30.3438 85.5762 30.6094C85.8887 30.8594 86.2716 31.0625 86.7247 31.2188C87.1934 31.3594 87.7325 31.4297 88.3419 31.4297ZM108.232 10.6406L108.419 13.7109C108.904 12.6172 109.568 11.7578 110.412 11.1328C111.271 10.4922 112.31 10.1719 113.529 10.1719C114.122 10.1719 114.654 10.2422 115.122 10.3828C115.591 10.5234 115.997 10.7422 116.341 11.0391C116.607 11.2578 116.833 11.5234 117.021 11.8359C117.224 12.1328 117.396 12.4766 117.537 12.8672C117.755 12.4922 117.997 12.1562 118.263 11.8594C118.544 11.5469 118.849 11.2812 119.177 11.0625C119.583 10.7812 120.044 10.5625 120.56 10.4062C121.076 10.25 121.638 10.1719 122.247 10.1719C123.013 10.1719 123.724 10.3125 124.38 10.5938C125.052 10.875 125.638 11.3203 126.138 11.9297C126.622 12.5547 126.997 13.3594 127.263 14.3438C127.544 15.3125 127.685 16.5 127.685 17.9062V36H121.755V17.8828C121.755 17.3984 121.701 17 121.591 16.6875C121.497 16.375 121.365 16.125 121.193 15.9375C121.021 15.7656 120.818 15.6484 120.583 15.5859C120.365 15.5078 120.138 15.4688 119.904 15.4688C119.654 15.4688 119.427 15.5 119.224 15.5625C119.037 15.625 118.857 15.7109 118.685 15.8203C118.544 15.9297 118.419 16.0547 118.31 16.1953C118.201 16.3203 118.107 16.4688 118.029 16.6406C118.029 16.6719 118.029 16.7422 118.029 16.8516C118.029 16.9609 118.029 17.1094 118.029 17.2969V36H112.287V17.8594C112.287 17.375 112.24 16.9766 112.146 16.6641C112.052 16.3516 111.927 16.1094 111.771 15.9375C111.599 15.7656 111.404 15.6484 111.185 15.5859C110.966 15.5078 110.732 15.4688 110.482 15.4688C110.201 15.4688 109.951 15.5156 109.732 15.6094C109.513 15.7031 109.318 15.8359 109.146 16.0078C109.021 16.1328 108.912 16.2812 108.818 16.4531C108.724 16.625 108.638 16.8125 108.56 17.0156V36H102.63V10.6406H108.232ZM131.38 10.6406H145.184V30.7031H152.052V36H131.38V30.7031H138.598V15.9609H131.38V10.6406ZM138.13 4.14844C138.13 3.64844 138.216 3.1875 138.387 2.76562C138.575 2.32812 138.833 1.95312 139.161 1.64062C139.489 1.34375 139.88 1.10937 140.333 0.9375C140.802 0.765625 141.317 0.679688 141.88 0.679688C143.036 0.679688 143.95 1.00781 144.622 1.66406C145.309 2.30469 145.653 3.13281 145.653 4.14844C145.653 5.16406 145.309 6 144.622 6.65625C143.95 7.29688 143.036 7.61719 141.88 7.61719C141.317 7.61719 140.802 7.53125 140.333 7.35938C139.88 7.1875 139.489 6.94531 139.161 6.63281C138.833 6.33594 138.575 5.97656 138.387 5.55469C138.216 5.11719 138.13 4.64844 138.13 4.14844ZM155.113 36V10.6406H161.02L161.418 14.1562C161.746 13.6875 162.106 13.2578 162.496 12.8672C162.887 12.4766 163.301 12.125 163.738 11.8125C164.488 11.2812 165.309 10.875 166.199 10.5938C167.09 10.3125 168.035 10.1719 169.035 10.1719C170.317 10.1719 171.488 10.3594 172.551 10.7344C173.613 11.1094 174.535 11.7031 175.317 12.5156C176.082 13.3438 176.676 14.4062 177.098 15.7031C177.535 16.9844 177.754 18.5469 177.754 20.3906V36H171.238V20.4844C171.238 19.4844 171.121 18.6641 170.887 18.0234C170.668 17.3672 170.348 16.8516 169.926 16.4766C169.504 16.1016 168.996 15.8438 168.402 15.7031C167.809 15.5469 167.137 15.4688 166.387 15.4688C165.762 15.4688 165.184 15.5391 164.652 15.6797C164.137 15.8203 163.676 16.0312 163.27 16.3125C162.942 16.5156 162.645 16.7578 162.379 17.0391C162.113 17.3203 161.871 17.6328 161.652 17.9766V36H155.113ZM192.535 4.42969V10.6406H202.003V15.4453H192.535V26.3438C192.535 27.2656 192.636 28.0391 192.839 28.6641C193.058 29.2734 193.363 29.7578 193.753 30.1172C194.144 30.4922 194.613 30.7578 195.16 30.9141C195.722 31.0703 196.347 31.1484 197.035 31.1484C197.535 31.1484 198.042 31.125 198.558 31.0781C199.089 31.0312 199.597 30.9688 200.082 30.8906C200.55 30.8281 200.988 30.7578 201.394 30.6797C201.816 30.6016 202.175 30.5234 202.472 30.4453L203.105 34.9219C202.652 35.1875 202.121 35.4219 201.511 35.625C200.902 35.8125 200.253 35.9688 199.566 36.0938C198.878 36.2188 198.16 36.3125 197.41 36.375C196.675 36.4531 195.949 36.4922 195.23 36.4922C193.839 36.4922 192.574 36.3125 191.433 35.9531C190.308 35.5781 189.347 35 188.55 34.2188C187.738 33.4531 187.113 32.4766 186.675 31.2891C186.238 30.0859 186.019 28.6484 186.019 26.9766V15.4453H180.23V10.6406H186.019V4.42969H192.535Z" fill="white"/>
</svg>
