<svg width="430" height="779" viewBox="0 0 430 779" fill="none" xmlns="http://www.w3.org/2000/svg">
        <g opacity="0.1">
            <path d="M-83.8643 212.785C-133.464 202.741 -165.532 154.39 -155.488 104.79L-148.399 69.7796C-138.865 22.6954 -92.9668 -7.74517 -45.8825 1.78881L-8.26892 9.40511C18.0419 14.7327 35.0522 40.3808 29.7245 66.6916L20.6905 111.307C20.3522 112.977 21.4321 114.606 23.1025 114.944C24.4053 115.208 25.7295 114.604 26.4047 113.459C43.0516 85.2358 65.4879 64.6809 93.7136 51.7948C122.578 38.6174 154.364 35.5427 189.073 42.5708C224.215 49.6868 252.583 65.1684 274.176 89.0156C295.175 111.949 305.511 138.696 305.184 169.257C305.166 170.87 306.281 172.284 307.862 172.604C309.32 172.9 310.794 172.182 311.489 170.866C326.2 143.064 348.796 122.874 379.279 110.298C410.617 97.1683 444.834 94.3592 481.929 101.871C529.87 111.578 565.573 134.886 589.038 171.793C612.72 208.745 619.363 252.89 608.967 304.228C603.72 330.143 578.458 346.897 552.543 341.649L421.088 315.031C420.403 314.893 419.96 314.225 420.099 313.54C424.548 291.569 422.496 273.263 413.943 258.624C405.435 243.766 391.852 234.449 373.196 230.671C354.757 226.938 338.837 230.281 325.436 240.702C312.295 250.949 303.501 267.058 299.052 289.029C298.913 289.714 298.245 290.157 297.56 290.018L128.233 255.732C127.547 255.593 127.104 254.925 127.243 254.24C131.692 232.269 129.64 213.964 121.087 199.324C112.579 184.467 98.9963 175.149 80.3403 171.372C67.9753 168.868 56.7731 169.544 46.7337 173.398C36.6943 177.253 28.1008 184.005 20.953 193.654C14.0663 203.129 9.14725 215.154 6.19603 229.729C6.0573 230.414 5.38941 230.857 4.70425 230.719L-83.8643 212.785Z" fill="white"/>
            <path d="M-83.8643 212.785C-133.464 202.741 -165.532 154.39 -155.488 104.79L-148.399 69.7796C-138.865 22.6954 -92.9668 -7.74517 -45.8825 1.78881L-8.26892 9.40511C18.0419 14.7327 35.0522 40.3808 29.7245 66.6916L20.6905 111.307C20.3522 112.977 21.4321 114.606 23.1025 114.944C24.4053 115.208 25.7295 114.604 26.4047 113.459C43.0516 85.2358 65.4879 64.6809 93.7136 51.7948C122.578 38.6174 154.364 35.5427 189.073 42.5708C224.215 49.6868 252.583 65.1684 274.176 89.0156C295.175 111.949 305.511 138.696 305.184 169.257C305.166 170.87 306.281 172.284 307.862 172.604C309.32 172.9 310.794 172.182 311.489 170.866C326.2 143.064 348.796 122.874 379.279 110.298C410.617 97.1683 444.834 94.3592 481.929 101.871C529.87 111.578 565.573 134.886 589.038 171.793C612.72 208.745 619.363 252.89 608.967 304.228C603.72 330.143 578.458 346.897 552.543 341.649L421.088 315.031C420.403 314.893 419.96 314.225 420.099 313.54C424.548 291.569 422.496 273.263 413.943 258.624C405.435 243.766 391.852 234.449 373.196 230.671C354.757 226.938 338.837 230.281 325.436 240.702C312.295 250.949 303.501 267.058 299.052 289.029C298.913 289.714 298.245 290.157 297.56 290.018L128.233 255.732C127.547 255.593 127.104 254.925 127.243 254.24C131.692 232.269 129.64 213.964 121.087 199.324C112.579 184.467 98.9963 175.149 80.3403 171.372C67.9753 168.868 56.7731 169.544 46.7337 173.398C36.6943 177.253 28.1008 184.005 20.953 193.654C14.0663 203.129 9.14725 215.154 6.19603 229.729C6.0573 230.414 5.38941 230.857 4.70425 230.719L-83.8643 212.785Z" fill="url(#paint0_linear_37_223)"/>
            <path d="M-127.723 429.384C-177.323 419.341 -209.39 370.99 -199.347 321.39L-192.848 289.297C-183.314 242.212 -137.416 211.772 -90.332 221.306L-52.0567 229.056C-26.1113 234.31 -9.33736 259.602 -14.591 285.547L-23.49 329.495C-23.8288 331.169 -22.7469 332.8 -21.0734 333.139C-19.7729 333.402 -18.4506 332.803 -17.7714 331.663C-1.21102 303.871 21.1537 283.657 49.3228 271.022C78.1354 258.098 109.896 255.15 144.605 262.179C179.748 269.294 208.142 284.646 229.787 308.234C250.828 330.908 261.23 357.313 260.995 387.448C260.982 389.063 262.1 390.478 263.682 390.798C265.141 391.094 266.614 390.379 267.315 389.066C281.943 361.688 304.468 341.838 334.89 329.516C366.175 316.646 400.366 313.967 437.461 321.478C485.402 331.186 521.149 354.279 544.7 390.758C568.469 427.28 575.228 470.854 564.977 521.479C559.802 547.034 534.891 563.555 509.336 558.381L377.212 531.627C376.537 531.49 376.1 530.832 376.237 530.156C380.624 508.49 378.524 490.424 369.936 475.956C361.392 461.274 347.792 452.045 329.136 448.267C310.697 444.533 294.794 447.789 281.428 458.035C268.323 468.109 259.577 483.98 255.19 505.646C255.053 506.321 254.394 506.758 253.719 506.621L84.3566 472.328C83.6809 472.191 83.2441 471.532 83.3809 470.856C87.768 449.191 85.6677 431.124 77.0801 416.657C68.536 401.975 54.9359 392.745 36.2799 388.967C23.9149 386.463 12.7207 387.1 2.69716 390.876C-7.32632 394.653 -15.8969 401.291 -23.0147 410.792C-29.8721 420.122 -34.7559 431.973 -37.6662 446.346C-37.803 447.022 -38.4616 447.458 -39.1372 447.322L-127.723 429.384Z" fill="white"/>
            <path d="M-127.723 429.384C-177.323 419.341 -209.39 370.99 -199.347 321.39L-192.848 289.297C-183.314 242.212 -137.416 211.772 -90.332 221.306L-52.0567 229.056C-26.1113 234.31 -9.33736 259.602 -14.591 285.547L-23.49 329.495C-23.8288 331.169 -22.7469 332.8 -21.0734 333.139C-19.7729 333.402 -18.4506 332.803 -17.7714 331.663C-1.21102 303.871 21.1537 283.657 49.3228 271.022C78.1354 258.098 109.896 255.15 144.605 262.179C179.748 269.294 208.142 284.646 229.787 308.234C250.828 330.908 261.23 357.313 260.995 387.448C260.982 389.063 262.1 390.478 263.682 390.798C265.141 391.094 266.614 390.379 267.315 389.066C281.943 361.688 304.468 341.838 334.89 329.516C366.175 316.646 400.366 313.967 437.461 321.478C485.402 331.186 521.149 354.279 544.7 390.758C568.469 427.28 575.228 470.854 564.977 521.479C559.802 547.034 534.891 563.555 509.336 558.381L377.212 531.627C376.537 531.49 376.1 530.832 376.237 530.156C380.624 508.49 378.524 490.424 369.936 475.956C361.392 461.274 347.792 452.045 329.136 448.267C310.697 444.533 294.794 447.789 281.428 458.035C268.323 468.109 259.577 483.98 255.19 505.646C255.053 506.321 254.394 506.758 253.719 506.621L84.3566 472.328C83.6809 472.191 83.2441 471.532 83.3809 470.856C87.768 449.191 85.6677 431.124 77.0801 416.657C68.536 401.975 54.9359 392.745 36.2799 388.967C23.9149 386.463 12.7207 387.1 2.69716 390.876C-7.32632 394.653 -15.8969 401.291 -23.0147 410.792C-29.8721 420.122 -34.7559 431.973 -37.6662 446.346C-37.803 447.022 -38.4616 447.458 -39.1372 447.322L-127.723 429.384Z" fill="url(#paint1_linear_37_223)"/>
            <path d="M-172.191 648.992C-221.791 638.948 -253.858 590.598 -243.815 540.997L-236.726 505.987C-227.192 458.902 -181.293 428.462 -134.209 437.996L-96.5955 445.612C-70.2847 450.94 -53.2744 476.588 -58.602 502.899L-67.6361 547.514C-67.9744 549.185 -66.8945 550.813 -65.2241 551.151C-63.9213 551.415 -62.5971 550.811 -61.9219 549.667C-45.275 521.443 -22.8387 500.888 5.38701 488.002C34.251 474.824 66.0373 471.75 100.746 478.778C135.889 485.894 164.257 501.375 185.849 525.223C206.849 548.156 217.185 574.903 216.857 605.464C216.84 607.077 217.955 608.491 219.536 608.811C220.994 609.107 222.467 608.389 223.163 607.073C237.873 579.271 260.47 559.082 290.952 546.505C322.29 533.375 356.507 530.566 393.602 538.078C441.544 547.785 477.247 571.093 500.711 608C524.393 644.952 531.036 689.097 520.641 740.435C515.393 766.35 490.131 783.104 464.217 777.856L332.762 751.238C332.077 751.1 331.634 750.432 331.772 749.747C336.221 727.776 334.169 709.47 325.617 694.831C317.108 679.973 303.526 670.656 284.87 666.879C266.431 663.145 250.51 666.488 237.109 676.909C223.969 687.156 215.174 703.265 210.725 725.236C210.587 725.921 209.919 726.364 209.234 726.225L39.9059 691.939C39.2208 691.8 38.7778 691.132 38.9165 690.447C43.3654 668.476 41.3134 650.171 32.7608 635.531C24.2521 620.674 10.6697 611.356 -7.98626 607.579C-20.3513 605.075 -31.5535 605.751 -41.5929 609.606C-51.6323 613.46 -60.2258 620.212 -67.3736 629.861C-74.2603 639.337 -79.1793 651.362 -82.1306 665.936C-82.2693 666.622 -82.9372 667.064 -83.6223 666.926L-172.191 648.992Z" fill="white"/>
            <path d="M-172.191 648.992C-221.791 638.948 -253.858 590.598 -243.815 540.997L-236.726 505.987C-227.192 458.902 -181.293 428.462 -134.209 437.996L-96.5955 445.612C-70.2847 450.94 -53.2744 476.588 -58.602 502.899L-67.6361 547.514C-67.9744 549.185 -66.8945 550.813 -65.2241 551.151C-63.9213 551.415 -62.5971 550.811 -61.9219 549.667C-45.275 521.443 -22.8387 500.888 5.38701 488.002C34.251 474.824 66.0373 471.75 100.746 478.778C135.889 485.894 164.257 501.375 185.849 525.223C206.849 548.156 217.185 574.903 216.857 605.464C216.84 607.077 217.955 608.491 219.536 608.811C220.994 609.107 222.467 608.389 223.163 607.073C237.873 579.271 260.47 559.082 290.952 546.505C322.29 533.375 356.507 530.566 393.602 538.078C441.544 547.785 477.247 571.093 500.711 608C524.393 644.952 531.036 689.097 520.641 740.435C515.393 766.35 490.131 783.104 464.217 777.856L332.762 751.238C332.077 751.1 331.634 750.432 331.772 749.747C336.221 727.776 334.169 709.47 325.617 694.831C317.108 679.973 303.526 670.656 284.87 666.879C266.431 663.145 250.51 666.488 237.109 676.909C223.969 687.156 215.174 703.265 210.725 725.236C210.587 725.921 209.919 726.364 209.234 726.225L39.9059 691.939C39.2208 691.8 38.7778 691.132 38.9165 690.447C43.3654 668.476 41.3134 650.171 32.7608 635.531C24.2521 620.674 10.6697 611.356 -7.98626 607.579C-20.3513 605.075 -31.5535 605.751 -41.5929 609.606C-51.6323 613.46 -60.2258 620.212 -67.3736 629.861C-74.2603 639.337 -79.1793 651.362 -82.1306 665.936C-82.2693 666.622 -82.9372 667.064 -83.6223 666.926L-172.191 648.992Z" fill="url(#paint2_linear_37_223)"/>
        </g>
        <defs>
            <linearGradient id="paint0_linear_37_223" x1="124.57" y1="709.082" x2="256.755" y2="56.2756" gradientUnits="userSpaceOnUse">
                <stop stop-color="#8FF3FA"/>
                <stop offset="1" stop-color="#20D0DD"/>
            </linearGradient>
            <linearGradient id="paint1_linear_37_223" x1="124.57" y1="709.082" x2="256.755" y2="56.2756" gradientUnits="userSpaceOnUse">
                <stop stop-color="#8FF3FA"/>
                <stop offset="1" stop-color="#20D0DD"/>
            </linearGradient>
            <linearGradient id="paint2_linear_37_223" x1="124.57" y1="709.082" x2="256.755" y2="56.2756" gradientUnits="userSpaceOnUse">
                <stop stop-color="#8FF3FA"/>
                <stop offset="1" stop-color="#20D0DD"/>
            </linearGradient>
        </defs>
    </svg>