    <svg width="24" height="24" viewBox="0 0 24 24" fill="currentColor" xmlns="http://www.w3.org/2000/svg">
        <g clip-path="url(#clip0_201_58712)">
            <path d="M15.683 0H8.31574C1.59274 0 -0.00100708 1.59375 -0.00100708 8.31675V15.684C-0.00100708 22.407 1.59274 24.0007 8.31574 24.0007H15.683C22.406 24.0007 23.9997 22.407 23.9997 15.684V8.31675C23.9997 1.59375 22.3902 0 15.683 0V0ZM19.3745 17.121H17.6322C16.9722 17.121 16.769 16.5975 15.5817 15.3945C14.5505 14.3947 14.0937 14.262 13.8395 14.262C13.4802 14.262 13.3782 14.3633 13.3782 14.856V16.4303C13.3782 16.8525 13.2455 17.106 12.128 17.106C10.28 17.106 8.22949 15.9885 6.79174 13.9065C4.62349 10.8555 4.03024 8.57025 4.03024 8.09775C4.03024 7.8435 4.13149 7.60575 4.61974 7.60575H6.36574C6.80749 7.60575 6.97549 7.809 7.14724 8.2815C8.01049 10.7738 9.44824 12.957 10.0415 12.957C10.2605 12.957 10.3617 12.8558 10.3617 12.297V9.723C10.295 8.53575 9.67024 8.43375 9.67024 8.01225C9.67024 7.809 9.83824 7.60575 10.1075 7.60575H12.8532C13.2245 7.60575 13.361 7.809 13.361 8.24625V11.7188C13.361 12.0938 13.529 12.2265 13.6302 12.2265C13.8492 12.2265 14.0367 12.0938 14.4425 11.6873C15.6965 10.281 16.595 8.11275 16.595 8.11275C16.712 7.8585 16.9152 7.62075 17.357 7.62075H19.103C19.6265 7.62075 19.7435 7.89 19.6265 8.265C19.4075 9.2805 17.2707 12.2963 17.2707 12.2963C17.087 12.6007 17.0165 12.7335 17.2707 13.0732C17.4582 13.3275 18.068 13.8548 18.4737 14.3273C19.22 15.1748 19.7937 15.8857 19.9467 16.3778C20.1185 16.866 19.865 17.1203 19.3722 17.1203L19.3745 17.121Z" fill="currentColor"/>
        </g>
        <defs>
            <clipPath id="clip0_201_58712">
                <rect width="24" height="24" fill="white"/>
            </clipPath>
        </defs>
    </svg>