<svg width="24" height="24" viewBox="0 0 24 24" fill="currentColor" xmlns="http://www.w3.org/2000/svg">
  <path d="M23.496 6.20321C23.211 5.19146 22.422 4.39796 21.4058 4.11746C19.5345 3.61721 12.012 3.61721 12.012 3.61721C12.012 3.61721 4.50377 3.60521 2.61302 4.11746C1.60202 4.39871 0.809269 5.19146 0.527269 6.20321C0.172519 8.12096 -0.00373131 10.062 0.00451869 12.012C0.000768687 13.9492 0.176269 15.8872 0.527269 17.793C0.809269 18.8047 1.60202 19.5982 2.61302 19.8832C4.48427 20.3835 12.012 20.3835 12.012 20.3835C12.012 20.3835 19.5158 20.3835 21.4058 19.8832C22.422 19.5982 23.211 18.8055 23.496 17.793C23.8403 15.8872 24.0083 13.9492 23.9963 12.012C24.0083 10.062 23.844 8.12096 23.496 6.20321ZM9.60902 15.6022V8.40596L15.8708 12.012L9.60902 15.6022Z" fill="currentColor"/>
</svg>